/* XPM */
static char * character_xpm[] = {
"90 50 532 2",
"  	c None",
". 	c #486C15",
"+ 	c #5D7834",
"@ 	c #73844F",
"# 	c #4A6126",
"$ 	c #537618",
"% 	c #74A324",
"& 	c #B7CD7E",
"* 	c #F8F8C0",
"= 	c #F8F8BE",
"- 	c #AAB27C",
"; 	c #70865D",
"> 	c #486B13",
", 	c #446212",
"' 	c #6F9C23",
") 	c #80B328",
"! 	c #AAC66F",
"~ 	c #F8F8BD",
"{ 	c #BBC5AE",
"] 	c #627F1F",
"^ 	c #334B0A",
"/ 	c #203406",
"( 	c #517518",
"_ 	c #6E9B23",
": 	c #7DAF29",
"< 	c #7EAC30",
"[ 	c #A3B98E",
"} 	c #678E1F",
"| 	c #61401E",
"1 	c #714927",
"2 	c #446111",
"3 	c #6B9720",
"4 	c #000000",
"5 	c #2C4209",
"6 	c #5F861D",
"7 	c #60871E",
"8 	c #758B40",
"9 	c #98AB5C",
"0 	c #698921",
"a 	c #5D4817",
"b 	c #7E6123",
"c 	c #B58D34",
"d 	c #DCB654",
"e 	c #A28C4E",
"f 	c #876728",
"g 	c #354E0C",
"h 	c #4F7117",
"i 	c #243807",
"j 	c #1D2F05",
"k 	c #2D460B",
"l 	c #4A6E16",
"m 	c #5D851D",
"n 	c #878028",
"o 	c #97712E",
"p 	c #9E8558",
"q 	c #C1AD7B",
"r 	c #DBB967",
"s 	c #DEB23E",
"t 	c #CCA338",
"u 	c #C09834",
"v 	c #AC8831",
"w 	c #567B18",
"x 	c #4E7117",
"y 	c #3E590F",
"z 	c #263C08",
"A 	c #446714",
"B 	c #567D1A",
"C 	c #66911F",
"D 	c #8D8E29",
"E 	c #C59B38",
"F 	c #ECD488",
"G 	c #F6EFB2",
"H 	c #F1D684",
"I 	c #E4B73F",
"J 	c #AB8332",
"K 	c #5E3122",
"L 	c #436010",
"M 	c #73A124",
"N 	c #5C821C",
"O 	c #557919",
"P 	c #344F0D",
"Q 	c #4E7218",
"R 	c #648E1F",
"S 	c #66911E",
"T 	c #4A4218",
"U 	c #946E2C",
"V 	c #E0C57C",
"W 	c #F1D785",
"X 	c #E9BB3F",
"Y 	c #E5B83F",
"Z 	c #B18A33",
"` 	c #5C2F20",
" .	c #36550E",
"..	c #37500D",
"+.	c #5B811C",
"@.	c #3D5F12",
"#.	c #314B0C",
"$.	c #416012",
"%.	c #2D470B",
"&.	c #3B550E",
"*.	c #577B19",
"=.	c #858225",
"-.	c #D0A53A",
";.	c #E8BA3F",
">.	c #D4A83B",
",.	c #C99F39",
"'.	c #C39A37",
").	c #835E2A",
"!.	c #2B4209",
"~.	c #35550D",
"{.	c #334B0B",
"].	c #4A6B15",
"^.	c #3E6012",
"/.	c #426212",
"(.	c #5B8119",
"_.	c #577B18",
":.	c #476513",
"<.	c #3A540E",
"[.	c #476612",
"}.	c #5C761D",
"|.	c #A6832F",
"1.	c #DFB23E",
"2.	c #CEA43A",
"3.	c #CFA73A",
"4.	c #E6B93F",
"5.	c #A47D30",
"6.	c #8A9090",
"7.	c #94A396",
"8.	c #8D9E8D",
"9.	c #1D2E05",
"0.	c #38560F",
"a.	c #6B8249",
"b.	c #B1C977",
"c.	c #A5C16E",
"d.	c #689220",
"e.	c #2D450A",
"f.	c #39520E",
"g.	c #8A7926",
"h.	c #E7B93F",
"i.	c #ECBE40",
"j.	c #DDB13D",
"k.	c #9A722F",
"l.	c #33510D",
"m.	c #3D5E11",
"n.	c #A9B2B2",
"o.	c #B2BCBD",
"p.	c #ABB6B7",
"q.	c #3F5B0F",
"r.	c #4E6F15",
"s.	c #2C4009",
"t.	c #8AA466",
"u.	c #E0E6AF",
"v.	c #E4EBB2",
"w.	c #496C15",
"x.	c #6F9124",
"y.	c #98872E",
"z.	c #BD9436",
"A.	c #C8A038",
"B.	c #BB9634",
"C.	c #846D27",
"D.	c #4A4C18",
"E.	c #6A7D6C",
"F.	c #798D7D",
"G.	c #879789",
"H.	c #A3ADA1",
"I.	c #6D7A63",
"J.	c #B1BDBB",
"K.	c #818F84",
"L.	c #324C0C",
"M.	c #1B2C04",
"N.	c #32490A",
"O.	c #68931E",
"P.	c #709E22",
"Q.	c #3C5910",
"R.	c #689221",
"S.	c #9CBA72",
"T.	c #C1D495",
"U.	c #78A926",
"V.	c #577D1B",
"W.	c #72816D",
"X.	c #899B81",
"Y.	c #6A961F",
"Z.	c #798E60",
"`.	c #776D6B",
" +	c #562D1E",
".+	c #6C6866",
"++	c #77877E",
"@+	c #7A8D7F",
"#+	c #859490",
"$+	c #849091",
"%+	c #9AA4A5",
"&+	c #BCBFC0",
"*+	c #767676",
"=+	c #7A8585",
"-+	c #565D5E",
";+	c #2B440A",
">+	c #122002",
",+	c #243606",
"'+	c #5C831B",
")+	c #567C19",
"!+	c #486C16",
"~+	c #679120",
"{+	c #78A826",
"]+	c #7DAF27",
"^+	c #6B9621",
"/+	c #537819",
"(+	c #7A8F73",
"_+	c #808C86",
":+	c #5D6C60",
"<+	c #66746B",
"[+	c #304B0C",
"}+	c #627167",
"|+	c #747F7F",
"1+	c #897162",
"2+	c #A57F30",
"3+	c #B08F2E",
"4+	c #82671D",
"5+	c #2C440A",
"6+	c #3B560D",
"7+	c #517317",
"8+	c #405C11",
"9+	c #3F5B11",
"0+	c #3F5E12",
"a+	c #6C9722",
"b+	c #597F1B",
"c+	c #577E1A",
"d+	c #8BA263",
"e+	c #8B8F70",
"f+	c #314D0C",
"g+	c #624B20",
"h+	c #6B4C23",
"i+	c #684F22",
"j+	c #82462D",
"k+	c #975835",
"l+	c #BB8C3A",
"m+	c #C69F38",
"n+	c #C28B3E",
"o+	c #36530E",
"p+	c #39530D",
"q+	c #66921F",
"r+	c #557A1A",
"s+	c #496A15",
"t+	c #628C1E",
"u+	c #97B968",
"v+	c #AEBE84",
"w+	c #6A9521",
"x+	c #5D851C",
"y+	c #96AC75",
"z+	c #A6A388",
"A+	c #774428",
"B+	c #A8603C",
"C+	c #A45B3B",
"D+	c #663723",
"E+	c #905134",
"F+	c #A2593C",
"G+	c #9D563A",
"H+	c #AE7F37",
"I+	c #AD8532",
"J+	c #B18934",
"K+	c #A97438",
"L+	c #6D3D24",
"M+	c #32490B",
"N+	c #597E1A",
"O+	c #699520",
"P+	c #557B1A",
"Q+	c #0F1B02",
"R+	c #476713",
"S+	c #91B162",
"T+	c #C3D393",
"U+	c #B8CC8D",
"V+	c #719F23",
"W+	c #6B9921",
"X+	c #698321",
"Y+	c #7A422C",
"Z+	c #965137",
"`+	c #894A32",
" @	c #7F462E",
".@	c #7E462E",
"+@	c #9D7330",
"@@	c #B99135",
"#@	c #DDB33D",
"$@	c #E9CF82",
"%@	c #EAC972",
"&@	c #AC8832",
"*@	c #658E1F",
"=@	c #689420",
"-@	c #4A6A15",
";@	c #273E08",
">@	c #2C4008",
",@	c #66901F",
"'@	c #96BC57",
")@	c #B8CC85",
"!@	c #98B868",
"~@	c #A2BA6C",
"{@	c #849024",
"]@	c #AB872E",
"^@	c #B59E66",
"/@	c #B5A36F",
"(@	c #9E7431",
"_@	c #93672F",
":@	c #C19737",
"<@	c #D9AC3C",
"[@	c #E0B33E",
"}@	c #CDBB87",
"|@	c #BCAA72",
"1@	c #97792A",
"2@	c #31470A",
"3@	c #446213",
"4@	c #2A4109",
"5@	c #182704",
"6@	c #414713",
"7@	c #784529",
"8@	c #88712C",
"9@	c #648E1E",
"0@	c #73A224",
"a@	c #92AB6D",
"b@	c #B5A878",
"c@	c #CCA636",
"d@	c #EFCD71",
"e@	c #F2DE94",
"f@	c #DEC478",
"g@	c #B58E34",
"h@	c #AC8432",
"i@	c #A07E2D",
"j@	c #9D7F2A",
"k@	c #757820",
"l@	c #374F0D",
"m@	c #4D3114",
"n@	c #9A5A36",
"o@	c #9E5A38",
"p@	c #AB5E3F",
"q@	c #965636",
"r@	c #6E4825",
"s@	c #5E851C",
"t@	c #A4862A",
"u@	c #F1D888",
"v@	c #EBDA95",
"w@	c #795724",
"x@	c #3A4411",
"y@	c #476714",
"z@	c #628B1D",
"A@	c #557818",
"B@	c #3C4343",
"C@	c #9A9A96",
"D@	c #975635",
"E@	c #A75D3E",
"F@	c #A1593B",
"G@	c #894C32",
"H@	c #844930",
"I@	c #655123",
"J@	c #545A1B",
"K@	c #9E8029",
"L@	c #E4B63E",
"M@	c #EFCC6E",
"N@	c #E3C573",
"O@	c #C49D37",
"P@	c #927328",
"Q@	c #34180F",
"R@	c #273D08",
"S@	c #3F5C11",
"T@	c #5A7F1A",
"U@	c #486611",
"V@	c #4B5353",
"W@	c #ABB8B7",
"X@	c #494C16",
"Y@	c #6B3A25",
"Z@	c #8A4D33",
"`@	c #76412B",
" #	c #6C3B27",
".#	c #52571A",
"+#	c #7A7B21",
"@#	c #B59131",
"##	c #DCB03D",
"$#	c #BF9934",
"%#	c #867D24",
"&#	c #7A8686",
"*#	c #778680",
"=#	c #3F2013",
"-#	c #854A31",
";#	c #6B3A26",
">#	c #462417",
",#	c #5A641C",
"'#	c #5B811B",
")#	c #5E4C15",
"!#	c #957A27",
"~#	c #7D7B22",
"{#	c #638B1E",
"]#	c #72A123",
"^#	c #60871C",
"/#	c #3D570F",
"(#	c #3A4639",
"_#	c #5B6E5A",
":#	c #7F462D",
"<#	c #4A5416",
"[#	c #5D831C",
"}#	c #9DB874",
"|#	c #BACA8B",
"1#	c #547718",
"2#	c #1F3306",
"3#	c #37550F",
"4#	c #527518",
"5#	c #74A224",
"6#	c #73A123",
"7#	c #597E19",
"8#	c #162603",
"9#	c #233807",
"0#	c #2B140A",
"a#	c #634F20",
"b#	c #77A725",
"c#	c #B2CB87",
"d#	c #D1DAA1",
"e#	c #5A801A",
"f#	c #152503",
"g#	c #35520E",
"h#	c #496D16",
"i#	c #5F881D",
"j#	c #7AAC26",
"k#	c #B8CF88",
"l#	c #98A178",
"m#	c #142303",
"n#	c #466714",
"o#	c #6E9A22",
"p#	c #98BC5B",
"q#	c #CDD8A5",
"r#	c #A3C271",
"s#	c #294109",
"t#	c #406313",
"u#	c #507418",
"v#	c #699421",
"w#	c #B2C589",
"x#	c #ECEFB8",
"y#	c #C0CE91",
"z#	c #547817",
"A#	c #1A2C04",
"B#	c #436614",
"C#	c #A4C268",
"D#	c #F1F3BA",
"E#	c #BECD96",
"F#	c #537518",
"G#	c #36520E",
"H#	c #4B6F17",
"I#	c #89A65B",
"J#	c #A9C66D",
"K#	c #95BC56",
"L#	c #5B811A",
"M#	c #2E4309",
"N#	c #517418",
"O#	c #689320",
"P#	c #E4E7B4",
"Q#	c #92A36C",
"R#	c #3D580F",
"S#	c #243907",
"T#	c #385810",
"U#	c #4C7017",
"V#	c #507216",
"W#	c #1C2E05",
"X#	c #406112",
"Y#	c #75A525",
"Z#	c #7A9E43",
"`#	c #8CA06A",
" $	c #3F5D11",
".$	c #1E3105",
"+$	c #304C0C",
"@$	c #466915",
"#$	c #628B1E",
"$$	c #689321",
"%$	c #324A0B",
"&$	c #77A825",
"*$	c #618A1E",
"=$	c #416113",
"-$	c #284009",
";$	c #709E23",
">$	c #7AAA26",
",$	c #577C18",
"'$	c #142002",
")$	c #456312",
"!$	c #587E1B",
"~$	c #172803",
"{$	c #4F7318",
"]$	c #709D23",
"^$	c #37510D",
"/$	c #344C0B",
"($	c #3F5F12",
"_$	c #507218",
":$	c #3A5810",
"<$	c #426011",
"[$	c #4F7317",
"}$	c #2B4109",
"|$	c #415E10",
"1$	c #416011",
"2$	c #385710",
"3$	c #294009",
"4$	c #060D01",
"5$	c #2E470B",
"6$	c #59811B",
"7$	c #597D1A",
"8$	c #182904",
"9$	c #2C450A",
"0$	c #1F3105",
"a$	c #466814",
"b$	c #628A1E",
"c$	c #233505",
"d$	c #101D02",
"e$	c #406012",
"f$	c #4C7116",
"g$	c #466914",
"h$	c #203105",
"i$	c #436413",
"j$	c #97B66E",
"k$	c #CCD598",
"l$	c #5C831C",
"m$	c #6C9921",
"n$	c #4E7217",
"o$	c #71973D",
"p$	c #829E5B",
"q$	c #648D1F",
"r$	c #2A4209",
"s$	c #456915",
"t$	c #577C1B",
"u$	c #79A926",
"v$	c #7DB027",
"w$	c #6B9721",
"x$	c #020500",
"y$	c #0D1902",
"z$	c #192704",
"A$	c #182503",
"B$	c #081101",
"C$	c #142103",
"D$	c #203005",
"E$	c #233506",
"F$	c #1E2E04",
"G$	c #0D1701",
"                                                                                                                                                                                    ",
"                                                                                                                                                                                    ",
"                                                                                                                                                                                    ",
"                                                                                                                                                                                    ",
"                                                                                                                                                                                    ",
"                                                                                                                                                                                    ",
"                                                                                                                                                                                    ",
"                                                                                                                                                                                    ",
"                                                                              . + @ @ #                                                                                             ",
"                                                                            $ % & * = - ; >                                                                                         ",
"                                                                          , ' ) ! ~     { ]                                                                                         ",
"                                                                ^       / ( _ : <   [ } | 1                                                                                         ",
"                                                              2 3 4     5 6 7 8 9 0 a b c d e f                                                                                     ",
"                                                              g h i   j k l m n o p q r s t u v                                                                                     ",
"                                                                w x y z A B C D E F G H I J K                                                                                       ",
"                                                              L M N O P Q R S T U V W X Y Z `                                  .                                                    ",
"                                                              ..+.@.#.$.h %.&.*.=.-.;.>.,.'.).                              !.  ~.                                                  ",
"                                                              {.].^./.(._.:.<.[.}.|.1.2.3.4.5.                            6.7.8.                                                    ",
"                                                                9.0.a.b.c.d.x e.f.g.-.h.i.j.k.                  l.m.m.m.m.n.o.p.  4                                                 ",
"                                                              q.r.s.t.u.v.% l w.6 x.y.z.A.B.C.D.E.F.G.H.I.J.K.L.M.        4 4 4 4                                                   ",
"                                                            N.O.P.Q.R.S.T.U.V.W.X.Y.Z.`. +.+++@+#+$+%+&+*+=+-+;+>+4 4 4 4                                                           ",
"                                                            ,+'+)+!+~+{+]+^+/+(+_+#.:+<+[+}+|+|+1+2+3+4+4 4 4 4 5+                                                                  ",
"                                                          6+7+8+9+0+a+]+M b+c+d+e+f+g+h+f+i+j+j+k+l+m+n+  4 4 4 o+                                                                  ",
"                                                          p+q+r+s+i t+u+v+w+x+y+z+A+B+C+D+E+F+G+H+I+J+K+L+4                                                                         ",
"                                                        M+N+O+P+].Q+R+S+T+U+V+W+X+Y+Z+`+ @.@+@@@#@$@%@&@                                                                            ",
"                                                        g *@=@r+-@;@>@,@'@)@!@~@{@]@^@/@(@_@:@<@[@}@|@1@                                                                            ",
"                                                        2@3@;+4@5@6@7@8@9@0@a@b@c@d@e@f@g@h@i@j@j@k@l@                                                                              ",
"                                                          4 4 m@n@o@p@q@r@O s@t@i.u@v@2.h@w@x@y@z@A@l@                                                                              ",
"                                                            B@C@D@E@F@G@H@I@J@K@L@M@N@O@P@Q@R@S@T@U@                                                                                ",
"                                                            V@W@X@Y@Z@H@`@ #.#+#@###$#%#:.4 4                                                                                       ",
"                                                              &#*#=#-#;#>#,#V+'#)#!#~#{#]#^#/#                                                                                      ",
"                                                              (#_#=#:#<#[#}#|#1#2#3#4#' {+5#6#7#                                                                                    ",
"                                                              8#9#0#a#6 b#c#d#e#f#g#h#i#0@j#k#l#                                                                                    ",
"                                                                4 m#n#o#p#q#r#z@4 s#t#u#v#w#x#y#z#                                                                                  ",
"                                                                4 A#B#t+C#D#E#F#4 j 2#G#H#I#J#K#L#                                                                                  ",
"                                                                M#N#V.O#C#P#Q#R#    S#T#U#,@j#{+V#                                                                                  ",
"                                                              W#X#( v#Y#Z#`# $4     .$+$@$U##$$$:.                                                                                  ",
"                                                              %$*@&${+*$h#=$W#        -$t#u#;$>$,$                                                                                  ",
"                                                              '$M#)$_ 0@!$~$          -${$]$L#^$/$                                                                                  ",
"                                                            8#($_$:$<$[$M+4           A#}$|$1$2$3$                                                                                  ",
"                                                          4 4$5$6$% 7$8$                4 9$q+&$z#                                                                                  ",
"                                                          0$a$7 b${#c$                    d$e$f$g$;@                                                                                ",
"                                                        h$i$b$j$k$5#4                   4 k u#l$m$0@,$4                                                                             ",
"                                                        j B#n$o$p$q$4                   r$^.s$t$~+u$v$w$/#                                                                          ",
"                                                        x$y$Q+z$z$A$4                   B$y$y$C$z$D$E$F$G$                                                                          ",
"                                                                                                                                                                                    ",
"                                                                                                                                                                                    ",
"                                                                                                                                                                                    ",
"                                                                                                                                                                                    ",
"                                                                                                                                                                                    "};
